<svg width="101" height="101" viewBox="0 0 101 101" fill="none" xmlns="http://www.w3.org/2000/svg">
<g clip-path="url(#clip0_48_155)">
<path d="M77.3281 0H23.6719C10.5983 0 0 10.5983 0 23.6719V77.3281C0 90.4017 10.5983 101 23.6719 101H77.3281C90.4017 101 101 90.4017 101 77.3281V23.6719C101 10.5983 90.4017 0 77.3281 0Z" fill="#242938"/>
<mask id="mask0_48_155" style="mask-type:luminance" maskUnits="userSpaceOnUse" x="24" y="11" width="53" height="79">
<path d="M24.0664 11.0469H76.6811V89.9531H24.0664V11.0469Z" fill="white"/>
</mask>
<g mask="url(#mask0_48_155)">
<path d="M37.2228 89.9531C44.4822 89.9531 50.3737 84.0616 50.3737 76.8022V63.6509H37.2228C29.9635 63.6509 24.0715 69.5428 24.0715 76.8022C24.0715 84.0616 29.9635 89.9531 37.2228 89.9531Z" fill="#0ACF83"/>
<path d="M24.0715 50.5C24.0715 43.2407 29.9635 37.3491 37.2228 37.3491H50.3737V63.6509H37.2228C29.9635 63.6509 24.0715 57.7594 24.0715 50.5Z" fill="#A259FF"/>
<path d="M24.0718 24.1978C24.0718 16.9384 29.9637 11.0469 37.2231 11.0469H50.374V37.3491H37.2231C29.9637 37.3491 24.0718 31.4572 24.0718 24.1978Z" fill="#F24E1E"/>
<path d="M50.3738 11.0469H63.5247C70.7841 11.0469 76.676 16.9384 76.676 24.1978C76.676 31.4572 70.7841 37.3491 63.5247 37.3491H50.3738V11.0469Z" fill="#FF7262"/>
<path d="M76.676 50.5C76.676 57.7594 70.7841 63.6509 63.5247 63.6509C56.2653 63.6509 50.3738 57.7594 50.3738 50.5C50.3738 43.2407 56.2653 37.3491 63.5247 37.3491C70.7841 37.3491 76.676 43.2407 76.676 50.5Z" fill="#1ABCFE"/>
</g>
</g>
<defs>
<clipPath id="clip0_48_155">
<rect width="101" height="101" fill="white"/>
</clipPath>
</defs>
</svg>
