<?xml version="1.0" encoding="UTF-8"?>
<svg id="Layer_8" data-name="Layer 8" xmlns="http://www.w3.org/2000/svg" viewBox="0 0 143.23 112">
  <defs>
    <style>
      .cls-1 {
        fill: #6f6855;
        font-family: AcademyEngravedLetPlain, 'Academy Engraved LET';
        font-size: 60px;
      }

      .cls-2 {
        fill: #d5ceb5;
      }

      .cls-2, .cls-3 {
        stroke: #6f6855;
        stroke-miterlimit: 10;
      }

      .cls-3 {
        fill: none;
      }
    </style>
  </defs>
  <path class="cls-2" d="m142.73,56c0,30.65-28.65,55.5-64,55.5-16.86,0-32.2-5.66-43.63-14.9-2.78-2.25-4.68-4.19-5.08-4.6-11.86-12.33-15.08-28.3-15.29-36C14.03,30.21,44.45.5,78.73.5s64,24.85,64,55.5Z"/>
  <text class="cls-1" transform="translate(32.37 74.66)"><tspan x="0" y="0">R</tspan></text>
  <text class="cls-1" transform="translate(79.4 75.17)"><tspan x="0" y="0">H</tspan></text>
  <path class="cls-3" d="m37.56,98.07c-1.13-1.28,1.18-4.96,2.49-6.62,1.31-1.66,4.28-4.7,5.68-3.95,1.47.78,1.32,5.77-1.39,8.59-2.09,2.19-5.77,3.14-6.79,1.98Z"/>
  <path class="cls-3" d="m33.76,96.03c.2,1.7-3.79,3.4-5.81,4.02-2.02.62-6.2,1.43-6.92.02-.76-1.48,2.2-5.49,6.03-6.28,2.96-.61,6.53.71,6.71,2.24Z"/>
  <path class="cls-3" d="m37.56,98.07l5.18-4.57-5.18,4.57Z"/>
  <path class="cls-3" d="m33.76,96.03l-3.97.31c-1.31.1-2.53.72-3.38,1.73h0"/>
  <path class="cls-3" d="m35.1,96.6l.06-.42c.38-2.45.57-4.93.57-7.41v-.27"/>
  <path class="cls-3" d="m28.23,90.05l-10.88-1.93c-.8-.14-1.59-.35-2.37-.56-.08-.02-.16-.04-.25-.06-1.26-.26-2.32.1-5.24,1.45-2.66,1.23-2.76,1.39-2.76,1.55.04.75,2.69,1.65,5,1,1.52-.43,3.51-3.41,4-4"/>
  <path class="cls-2" d="m36.82,87.99c-.89.62-2.43.76-3,.05-1.14-1.43,1.64-6.32,2.89-6.05,1.08.23,2.17,4.55.11,6Z"/>
  <line class="cls-3" x1="35.73" y1="88.5" x2="35.77" y2="85.94"/>
  <line class="cls-3" x1="14.72" y1="88.08" x2="11.46" y2="90"/>
  <path class="cls-3" d="m20.6,85.62c-.14,1.08-1.08,2.31-1.99,2.24-1.82-.13-3.54-5.48-2.5-6.23.9-.64,4.82,1.48,4.49,3.98Z"/>
  <path class="cls-3" d="m26.41,87.32c-.83-.73.36-3.28,1.07-4.45.7-1.17,2.37-3.36,3.33-2.99,1,.38,1.31,3.6-.2,5.63-1.17,1.57-3.45,2.48-4.2,1.81Z"/>
  <path class="cls-3" d="m15.18,96.71c-.83-.94.85-3.65,1.8-4.87.95-1.22,3.13-3.47,4.16-2.93,1.08.57.99,4.23-.98,6.32-1.53,1.62-4.23,2.33-4.98,1.48Z"/>
  <line class="cls-3" x1="20.62" y1="88.84" x2="19.14" y2="92.98"/>
  <line class="cls-3" x1="19.14" y1="87.76" x2="18.39" y2="85.25"/>
  <line class="cls-3" x1="26.41" y1="87.32" x2="29.27" y2="83.69"/>
  <path class="cls-3" d="m21.04,79.4l-3.91-4.81c-.29-.35-.53-.76-.78-1.17-.02-.04-.05-.08-.08-.12-.43-.58-1.31-2.38-3.37-2.1-1.87.26-5.29,2.13-5.37,2.26-.39.64,3.81,2.2,5.22,2.33.92.09,3.44-1.85,3.98-2.19"/>
  <path class="cls-3" d="m24.1,84.84l.08-6.2c0-.46-.05-.93-.11-1.4,0-.05,0-.1-.01-.15-.02-.73-.45-2.68,1.34-3.74,1.63-.96,5.47-1.62,5.62-1.56.7.26-1.63,4.09-2.65,5.06-.67.64-3.85.69-4.49.75"/>
  <path class="cls-2" d="m20.93,70.52c-.89.62-2.43.76-3,.05-1.14-1.43,1.64-6.32,2.89-6.05,1.08.23,2.17,4.55.11,6Z"/>
  <path class="cls-3" d="m15.24,64.53c-.66.89-3.3-.07-4.52-.67-1.23-.6-3.56-2.07-3.28-3.05.29-1.03,3.47-1.62,5.62-.3,1.67,1.02,2.77,3.22,2.18,4.02Z"/>
  <line class="cls-3" x1="16.28" y1="73.31" x2="13.09" y2="73.31"/>
  <line class="cls-3" x1="24.05" y1="77.09" x2="27.33" y2="74.66"/>
  <line class="cls-3" x1="17.93" y1="70.57" x2="19.88" y2="68.72"/>
  <line class="cls-3" x1="15.24" y1="64.53" x2="11.41" y2="62.08"/>
</svg>