<svg width="101" height="101" viewBox="0 0 101 101" fill="none" xmlns="http://www.w3.org/2000/svg">
<g clip-path="url(#clip0_48_167)">
<path d="M77.3281 0H23.6719C10.5983 0 0 10.5983 0 23.6719V77.3281C0 90.4017 10.5983 101 23.6719 101H77.3281C90.4017 101 101 90.4017 101 77.3281V23.6719C101 10.5983 90.4017 0 77.3281 0Z" fill="#F4F2ED"/>
<path d="M13.302 39.5352C13.302 39.5352 11.4339 38.1886 13.6756 36.3907L18.8976 31.7211C18.8976 31.7211 20.3921 30.1489 21.9718 31.5187L70.1634 68.0045V85.5004C70.1634 85.5004 70.1401 88.2479 66.6142 87.9441L13.302 39.5352Z" fill="#2489CA"/>
<path d="M25.7235 50.8125L13.302 62.1052C13.302 62.1052 12.0253 63.0548 13.302 64.7517L19.0689 69.997C19.0689 69.997 20.4387 71.4682 22.4623 69.7946L35.6309 59.8094L25.7235 50.8125Z" fill="#1070B3"/>
<path d="M47.5307 50.906L70.3113 33.5111L70.1634 16.1087C70.1634 16.1087 69.1905 12.3105 65.9451 14.2875L35.6309 41.8775L47.5307 50.906Z" fill="#0877B9"/>
<path d="M66.6142 87.9678C67.9375 89.3219 69.5408 88.8784 69.5408 88.8784L87.2936 80.1305C89.5661 78.5815 89.2469 76.6594 89.2469 76.6594V24.4207C89.2469 22.1245 86.8963 21.3311 86.8963 21.3311L71.5099 13.9139C68.1477 11.8359 65.9451 14.2875 65.9451 14.2875C65.9451 14.2875 68.7778 12.2486 70.1634 16.1087V85.1813C70.1655 85.6524 70.0619 86.1179 69.86 86.5436C69.4552 87.3607 68.5758 88.1233 66.4666 87.8041L66.6142 87.9678Z" fill="#3C99D4"/>
</g>
<defs>
<clipPath id="clip0_48_167">
<rect width="101" height="101" fill="white"/>
</clipPath>
</defs>
</svg>
